<svg xmlns="http://www.w3.org/2000/svg" version="1.1" xmlns:xlink="http://www.w3.org/1999/xlink" xmlns:svgjs="http://svgjs.dev/svgjs" width="1000" height="1000" viewBox="0 0 1000 1000"><rect width="1000" height="1000" fill="#000000"></rect><g transform="matrix(0.7,0,0,0.7,150.11896067415722,412.89522471910107)"><svg viewBox="0 0 356 89" data-background-color="#61777f" preserveAspectRatio="xMidYMid meet" height="250" width="1000" xmlns="http://www.w3.org/2000/svg" xmlns:xlink="http://www.w3.org/1999/xlink"><g id="tight-bounds" transform="matrix(1,0,0,1,-0.06049999999996203,-0.2009999999999934)"><svg viewBox="0 0 356.12052 89.40185591547946" height="89.40185591547946" width="356.12052"><g><svg viewBox="0 0 356.12052 89.40185591547946" height="89.40185591547946" width="356.12052"><g><svg viewBox="0 0 356.12052 89.40185591547946" height="89.40185591547946" width="356.12052"><g><path d="M0 89.402v-89.402h356.121v89.402z" fill="#ffffff" stroke="transparent" stroke-width="0" rx="0%" data-fill-palette-color="tertiary"></path><path d="M3.283 86.119v-82.836h349.554v82.836z" fill="#000000" stroke="transparent" stroke-width="0" rx="0%" data-fill-palette-color="quaternary"></path><path d="M9.85 79.552v-69.702h336.421v69.702z" fill="#ffffff" stroke="transparent" stroke-width="0" data-fill-palette-color="tertiary"></path></g><g transform="matrix(1,0,0,1,19.69974,19.69974)" id="textblocktransform"><svg viewBox="0 0 316.72104 50.00237591547946" height="50.00237591547946" width="316.72104" id="textblock"><g><svg viewBox="0 0 316.72104 26.845362123287675" height="26.845362123287675" width="316.72104"><g transform="matrix(1,0,0,1,0,0)"><svg width="316.72104" viewBox="1.9 -37.95 467.17 39.6" height="26.845362123287675" data-palette-color="#61777f"><path d="M1.9-18.1L1.9-18.1Q1.9-21.85 3.35-25.23 4.8-28.6 7.33-31.15 9.85-33.7 13.2-35.18 16.55-36.65 20.4-36.65L20.4-36.65Q24.2-36.65 27.58-35.18 30.95-33.7 33.48-31.15 36-28.6 37.48-25.23 38.95-21.85 38.95-18.1L38.95-18.1Q38.95-14.25 37.48-10.9 36-7.55 33.48-5.03 30.95-2.5 27.58-1.05 24.2 0.4 20.4 0.4L20.4 0.4Q16.55 0.4 13.2-1.05 9.85-2.5 7.33-5.03 4.8-7.55 3.35-10.9 1.9-14.25 1.9-18.1ZM7.35-18.05L7.35-18.05Q7.35-15.3 8.38-12.88 9.4-10.45 11.2-8.65 13-6.85 15.4-5.8 17.8-4.75 20.5-4.75L20.5-4.75Q23.2-4.75 25.58-5.8 27.95-6.85 29.73-8.65 31.5-10.45 32.52-12.88 33.55-15.3 33.55-18.1L33.55-18.1Q33.55-20.85 32.52-23.28 31.5-25.7 29.7-27.5 27.9-29.3 25.53-30.35 23.15-31.4 20.45-31.4L20.45-31.4Q17.75-31.4 15.35-30.35 12.95-29.3 11.18-27.5 9.4-25.7 8.38-23.25 7.35-20.8 7.35-18.05ZM50.8-31.15L50.8-18.1 55.75-18.1Q57.75-18.1 59.1-18.8 60.45-19.5 61.22-20.5 62-21.5 62.32-22.65 62.65-23.8 62.65-24.7L62.65-24.7Q62.65-25.65 62.32-26.78 62-27.9 61.2-28.88 60.4-29.85 59.07-30.5 57.75-31.15 55.8-31.15L55.8-31.15 50.8-31.15ZM50.8 0L45.3 0 45.3-36.25 55.2-36.25Q58.05-36.25 60.42-35.5 62.8-34.75 64.52-33.27 66.25-31.8 67.2-29.68 68.15-27.55 68.15-24.8L68.15-24.8Q68.15-22.65 67.5-20.53 66.85-18.4 65.4-16.73 63.95-15.05 61.6-14 59.25-12.95 55.9-12.95L55.9-12.95 50.8-12.95 50.8 0ZM98.65 0L74.15 0 74.15-36.25 97.95-36.25 97.95-31.3 79.65-31.3 79.65-20.7 95.95-20.7 95.95-15.65 79.65-15.65 79.65-5.05 98.65-5.05 98.65 0ZM131.34-36.25L136.79-36.25 136.79 1.65Q136.09 0.75 134.09-1.25 132.09-3.25 129.49-5.85 126.89-8.45 123.97-11.3 121.04-14.15 118.44-16.73 115.84-19.3 113.89-21.33 111.94-23.35 111.29-24.2L111.29-24.2 110.34-25.5 110.49-23.9 110.49 0 104.99 0 104.99-37.95Q105.54-37.25 106.82-35.95 108.09-34.65 109.82-32.93 111.54-31.2 113.62-29.2 115.69-27.2 117.82-25.15 119.94-23.1 122.02-21.13 124.09-19.15 125.82-17.45 127.54-15.75 128.79-14.45 130.04-13.15 130.54-12.5L130.54-12.5 131.49-11.1 131.34-12.8 131.34-36.25ZM178.54-36.25L183.99-36.25 183.99 1.65Q183.29 0.75 181.29-1.25 179.29-3.25 176.69-5.85 174.09-8.45 171.16-11.3 168.24-14.15 165.64-16.73 163.04-19.3 161.09-21.33 159.14-23.35 158.49-24.2L158.49-24.2 157.54-25.5 157.69-23.9 157.69 0 152.19 0 152.19-37.95Q152.74-37.25 154.01-35.95 155.29-34.65 157.01-32.93 158.74-31.2 160.81-29.2 162.89-27.2 165.01-25.15 167.14-23.1 169.21-21.13 171.29-19.15 173.01-17.45 174.74-15.75 175.99-14.45 177.24-13.15 177.74-12.5L177.74-12.5 178.69-11.1 178.54-12.8 178.54-36.25ZM217.38 0L192.88 0 192.88-36.25 216.69-36.25 216.69-31.3 198.38-31.3 198.38-20.7 214.69-20.7 214.69-15.65 198.38-15.65 198.38-5.05 217.38-5.05 217.38 0ZM260.58-36.1L266.28-36.1Q264.48-31.35 262.46-26.13 260.43-20.9 258.46-15.85 256.48-10.8 254.73-6.25 252.98-1.7 251.78 1.6L251.78 1.6 243.68-18.65Q243.53-19.05 243.43-19.25 243.33-19.45 243.23-19.85L243.23-19.85Q243.23-19.65 243.18-19.48 243.13-19.3 243.08-19.1L243.08-19.1Q243.03-18.9 242.98-18.7L242.98-18.7Q241.28-14.8 239.63-11.05L239.63-11.05Q238.93-9.45 238.18-7.75 237.43-6.05 236.73-4.38 236.03-2.7 235.36-1.15 234.68 0.4 234.13 1.65L234.13 1.65Q230.53-7.8 226.88-17.2 223.23-26.6 219.63-36.1L219.63-36.1 225.78-36.1Q226.98-32.8 228.26-29.45 229.53-26.1 230.66-23 231.78-19.9 232.68-17.25 233.58-14.6 234.08-12.75L234.08-12.75 234.48-11Q234.53-11.25 234.73-11.83 234.93-12.4 235.03-12.65L235.03-12.65Q235.08-12.85 235.38-13.55 235.68-14.25 236.08-15.23 236.48-16.2 236.98-17.35 237.48-18.5 237.98-19.7L237.98-19.7Q239.18-22.45 240.63-25.8L240.63-25.8Q239.78-28.15 239.13-30.2L239.13-30.2Q238.53-31.95 238.01-33.65 237.48-35.35 237.23-36.1L237.23-36.1 242.48-36.1Q244.63-30.45 246.48-25.65L246.48-25.65Q247.23-23.6 248.01-21.55 248.78-19.5 249.46-17.75 250.13-16 250.63-14.68 251.13-13.35 251.33-12.75L251.33-12.75Q251.48-12.3 251.56-11.88 251.63-11.45 251.73-11L251.73-11Q251.83-11.45 251.91-11.9 251.98-12.35 252.08-12.75L252.08-12.75Q252.53-14.7 253.48-17.4 254.43-20.1 255.61-23.2 256.78-26.3 258.08-29.63 259.38-32.95 260.58-36.1L260.58-36.1ZM275.83 0L275.83-37.85Q276.28-37.15 277.7-35.18 279.13-33.2 281-30.6 282.88-28 284.98-25.08 287.08-22.15 288.93-19.58 290.78-17 292.15-15.1 293.53-13.2 293.98-12.6L293.98-12.6Q294.13-12.85 294.93-13.95 295.73-15.05 296.9-16.7 298.08-18.35 299.58-20.43 301.08-22.5 302.65-24.68 304.23-26.85 305.75-29 307.28-31.15 308.58-32.93 309.88-34.7 310.8-36.02 311.73-37.35 312.13-37.85L312.13-37.85 312.13 0 306.33 0 306.33-20.3Q306.33-20.7 306.4-21.15 306.48-21.6 306.48-21.8L306.48-21.8Q306.03-21.2 305.05-19.78 304.08-18.35 302.8-16.53 301.53-14.7 300.13-12.68 298.73-10.65 297.48-8.85 296.23-7.05 295.28-5.68 294.33-4.3 293.98-3.75L293.98-3.75Q293.63-4.2 292.6-5.63 291.58-7.05 290.2-8.95 288.83-10.85 287.3-13 285.78-15.15 284.48-17 283.18-18.85 282.23-20.18 281.28-21.5 281.13-21.8L281.13-21.8Q281.13-21.6 281.2-21.15 281.28-20.7 281.28-20.3L281.28-20.3 281.28 0 275.83 0ZM348.88 0L343.47 0Q343.22-0.55 342.77-1.6 342.32-2.65 341.75-4.03 341.18-5.4 340.5-7.03 339.82-8.65 339.13-10.4L339.13-10.4 326.32-10.4 322.02 0 316.63 0 332.77-37.95Q333.07-37.25 333.85-35.4 334.63-33.55 335.7-30.98 336.77-28.4 338.1-25.28 339.43-22.15 340.8-18.95 342.18-15.75 343.5-12.65 344.82-9.55 345.93-6.95 347.02-4.35 347.8-2.53 348.57-0.7 348.88 0L348.88 0ZM332.22-24.7L328.22-15 337.27-15Q336.57-16.65 335.95-18.18 335.32-19.7 334.8-20.98 334.27-22.25 333.88-23.2 333.47-24.15 333.27-24.7L333.27-24.7Q333.22-24.8 333.05-25.4 332.88-26 332.77-26.5L332.77-26.5Q332.68-26 332.47-25.4 332.27-24.8 332.22-24.7L332.22-24.7ZM358.87 0L353.37 0 353.37-36.25 363.27-36.25Q366.12-36.25 368.5-35.5 370.87-34.75 372.6-33.27 374.32-31.8 375.27-29.68 376.22-27.55 376.22-24.8L376.22-24.8Q376.22-23.3 375.92-21.83 375.62-20.35 374.95-18.98 374.27-17.6 373.22-16.43 372.17-15.25 370.67-14.45L370.67-14.45Q372.67-11.3 375.02-7.48 377.37-3.65 379.77 0L379.77 0 373.22 0Q372.22-1.55 371.15-3.25 370.07-4.95 369-6.63 367.92-8.3 366.9-9.93 365.87-11.55 364.97-12.95L364.97-12.95 363.97-12.95 358.87-12.95 358.87 0ZM358.87-31.15L358.87-18.1 363.82-18.1Q365.82-18.1 367.17-18.78 368.52-19.45 369.3-20.45 370.07-21.45 370.4-22.6 370.72-23.75 370.72-24.7L370.72-24.7Q370.72-25.65 370.4-26.78 370.07-27.9 369.27-28.88 368.47-29.85 367.15-30.5 365.82-31.15 363.87-31.15L363.87-31.15 358.87-31.15ZM413.02 0L406.27 0Q404.52-2.25 402.92-4.3 401.32-6.35 399.77-8.4 398.22-10.45 396.64-12.55 395.07-14.65 393.32-16.9L393.32-16.9Q392.67-16.2 392.07-15.63 391.47-15.05 390.77-14.45L390.77-14.45Q390.77-10.6 390.8-7.23 390.82-3.85 390.82 0L390.82 0 384.77 0 384.77-36.25 390.82-36.25 390.82-22.7Q390.82-22.25 390.75-21.83 390.67-21.4 390.67-20.95L390.67-20.95Q390.92-21.3 391.17-21.58 391.42-21.85 391.67-22.25L391.67-22.25Q395.22-25.6 398.52-29.23 401.82-32.85 405.37-36.25L405.37-36.25 412.32-36.25Q408.57-32.35 404.89-28.4 401.22-24.45 397.47-20.55L397.47-20.55Q399.57-17.85 401.5-15.33 403.42-12.8 405.3-10.3 407.17-7.8 409.07-5.25 410.97-2.7 413.02 0L413.02 0ZM441.62 0L417.12 0 417.12-36.25 440.92-36.25 440.92-31.3 422.62-31.3 422.62-20.7 438.92-20.7 438.92-15.65 422.62-15.65 422.62-5.05 441.62-5.05 441.62 0ZM445.52-36.25L469.07-36.25 469.07-31.05 459.92-31.05 459.92 0 454.47 0 454.47-31.05 445.52-31.05 445.52-36.25Z" opacity="1" transform="matrix(1,0,0,1,0,0)" fill="#000000" class="wordmark-text-0" data-fill-palette-color="quaternary" id="text-0"></path></svg></g></svg></g><g transform="matrix(1,0,0,1,62.772026720647574,33.41194212328767)"><svg viewBox="0 0 191.17698655870487 16.59043379219178" height="16.59043379219178" width="191.17698655870487"><g transform="matrix(1,0,0,1,0,0)"><svg width="191.17698655870487" viewBox="5 -36.3 568.04 49.3" height="16.59043379219178" data-palette-color="#61777f"><path d="M5 0L5-34.2 8.05-34.2 8.05 0 5 0ZM41.05-31.4L33.24-31.4Q32.45-31.4 31.99-30.88 31.54-30.35 31.54-29.7L31.54-29.7 28.69-29.7Q28.69-31.55 29.99-32.85L29.99-32.85Q31.34-34.2 33.09-34.2L33.09-34.2 55.75-34.2 55.75-31.4 44.05-31.4 44.05 0 41.05 0 41.05-31.4ZM68.04-25.5Q69.54-25.5 71.04-25.05L71.04-25.05 71.04-22.25Q69.59-22.6 68.14-22.6L68.14-22.6Q65.59-22.6 63.99-21.35L63.99-21.35Q62.39-20.1 61.14-17.8L61.14-17.8 61.14 0 58.14 0 58.14-17.5Q58.14-21.45 56.04-23.3L56.04-23.3 58.04-25.3Q58.94-24.75 59.74-23.65 60.54-22.55 60.89-21.2L60.89-21.2Q62.29-23.5 63.69-24.35L63.69-24.35Q65.44-25.5 68.04-25.5L68.04-25.5ZM98.84-3.1L100.99-1.4Q100.24-0.35 99.32 0.08 98.39 0.5 97.19 0.5L97.19 0.5Q95.44 0.5 94.12-0.7 92.79-1.9 92.79-3.6L92.79-3.6Q89.34 0.4 84.44 0.4L84.44 0.4Q80.69 0.4 78.59-1.43 76.49-3.25 76.29-6.95L76.29-6.95 76.29-17.65Q76.29-21.6 74.19-23.45L74.19-23.45 76.19-25.45Q77.39-24.7 78.34-23.1 79.29-21.5 79.29-19.65L79.29-19.65 79.29-8.25Q79.29-5.4 80.57-3.85 81.84-2.3 84.74-2.3L84.74-2.3Q87.49-2.3 89.47-3.5 91.44-4.7 92.74-7.3L92.74-7.3 92.79-25 95.79-25 95.74-4.3Q95.74-3.3 96.22-2.78 96.69-2.25 97.39-2.25L97.39-2.25Q98.29-2.25 98.84-3.1L98.84-3.1ZM112.54 0.6Q107.49 0.6 103.14-3.3L103.14-3.3 104.79-5.3Q106.69-3.75 108.56-2.93 110.44-2.1 112.59-2.1L112.59-2.1Q115.29-2.1 116.81-3.38 118.34-4.65 118.34-6.85L118.34-6.85Q118.34-8.25 117.66-9.13 116.99-10 115.86-10.55 114.74-11.1 111.84-12.3L111.84-12.3Q109.19-13.4 107.74-14.2 106.29-15 105.44-16.18 104.59-17.35 104.59-19.15L104.59-19.15Q104.59-22.1 106.69-23.88 108.79-25.65 112.29-25.65L112.29-25.65Q114.09-25.65 115.86-25.15 117.64-24.65 118.89-23.7L118.89-23.7 117.64-21.55Q115.34-22.95 112.44-22.95L112.44-22.95Q110.14-22.95 108.89-22.05 107.64-21.15 107.64-19.5L107.64-19.5Q107.64-18.25 108.31-17.45 108.99-16.65 110.06-16.13 111.14-15.6 113.64-14.6L113.64-14.6Q116.49-13.45 118.06-12.53 119.64-11.6 120.51-10.28 121.39-8.95 121.39-7L121.39-7Q121.39-3.55 118.96-1.48 116.54 0.6 112.54 0.6L112.54 0.6ZM133.09 0.5Q129.69 0.5 128.09-1.43 126.49-3.35 126.49-7.2L126.49-7.2 126.49-31.25 129.49-31.25 129.49-24.9 137.34-24.9 137.34-22.2 129.49-22.2 129.49-7.2Q129.49-2.2 133.09-2.2L133.09-2.2Q135.94-2.2 137.49-5.25L137.49-5.25 139.74-3.7Q138.59-1.6 136.99-0.55 135.39 0.5 133.09 0.5L133.09 0.5ZM174.78 0.85Q169.93 0.85 166.01-1.43 162.08-3.7 159.81-7.68 157.53-11.65 157.53-16.5L157.53-16.5 157.53-17.45Q157.53-22.35 159.78-26.38 162.03-30.4 165.93-32.7 169.83-35 174.58-35L174.58-35Q179.38-35 183.28-32.7 187.18-30.4 189.43-26.38 191.68-22.35 191.68-17.45L191.68-17.45 191.68-16.5Q191.68-11.55 189.48-7.6 187.28-3.65 183.43-1.4 179.58 0.85 174.78 0.85L174.78 0.85ZM174.63-1.95Q178.58-1.95 181.78-3.85 184.98-5.75 186.83-9.08 188.68-12.4 188.68-16.5L188.68-16.5 188.68-17.45Q188.68-21.6 186.81-24.98 184.93-28.35 181.71-30.28 178.48-32.2 174.53-32.2L174.53-32.2Q170.63-32.2 167.43-30.25 164.23-28.3 162.38-24.93 160.53-21.55 160.53-17.45L160.53-17.45 160.53-16.5Q160.53-12.4 162.38-9.08 164.23-5.75 167.46-3.85 170.68-1.95 174.63-1.95L174.63-1.95ZM208.63-25.4Q212.08-25.4 214.5-23.68 216.93-21.95 218.15-19.05 219.38-16.15 219.38-12.6L219.38-12.6Q219.38-8.75 217.93-5.8 216.48-2.85 213.73-1.18 210.98 0.5 207.18 0.5L207.18 0.5Q205.93 0.5 201.23-0.15L201.23-0.15 201.23 13 198.38 13 198.38-17.6Q198.38-21.55 196.28-23.4L196.28-23.4 198.28-25.4Q199.13-24.8 199.93-23.75 200.73-22.7 201.08-21.45L201.08-21.45Q203.23-25.4 208.63-25.4L208.63-25.4ZM206.93-2.2Q211.63-2.2 214-4.93 216.38-7.65 216.38-12.35L216.38-12.35Q216.38-16.8 214.35-19.75 212.33-22.7 208.73-22.7L208.73-22.7Q205.88-22.7 203.65-20.95 201.43-19.2 201.23-16.4L201.23-16.4 201.23-2.65Q205.83-2.2 206.93-2.2L206.93-2.2ZM235.33 0.5Q231.58 0.5 228.98-1.05 226.38-2.6 225.05-5.33 223.73-8.05 223.73-11.5L223.73-11.5Q223.73-14.9 225-18.1 226.28-21.3 228.85-23.35 231.43-25.4 235.13-25.4L235.13-25.4Q237.58-25.4 239.68-24.45 241.78-23.5 243-21.75 244.23-20 244.23-17.7L244.23-17.7Q244.23-14 241.08-11.98 237.93-9.95 232.38-10L232.38-10 226.88-10.05Q227.33-6.2 229.45-4.2 231.58-2.2 235.33-2.2L235.33-2.2Q237.58-2.2 239.5-2.83 241.43-3.45 243.23-4.75L243.23-4.75 244.73-2.75Q242.83-1.25 240.4-0.38 237.98 0.5 235.33 0.5L235.33 0.5ZM233.03-12.6Q241.23-12.6 241.23-17.75L241.23-17.75Q241.23-20.25 239.5-21.48 237.78-22.7 235.28-22.7L235.28-22.7Q232.48-22.7 230.55-21.1 228.63-19.5 227.68-17.15 226.73-14.8 226.73-12.6L226.73-12.6 233.03-12.6ZM273.27-3.4L275.47-1.75Q275.07-0.9 274.07-0.33 273.07 0.25 271.82 0.25L271.82 0.25Q269.82 0.25 268.52-1 267.22-2.25 267.22-4.25L267.22-4.25 267.22-16.8Q267.22-22.8 261.82-22.8L261.82-22.8Q259.27-22.8 257.47-21.53 255.67-20.25 253.77-17.7L253.77-17.7 253.77 0 250.77 0 250.77-17.55Q250.77-21.5 248.67-23.35L248.67-23.35 250.67-25.35Q251.57-24.8 252.4-23.65 253.22-22.5 253.57-21.15L253.57-21.15Q255.27-23.45 257.35-24.48 259.42-25.5 262.07-25.5L262.07-25.5Q265.72-25.5 267.87-23.63 270.02-21.75 270.22-18.1L270.22-18.1 270.22-4.2Q270.22-3.5 270.7-3.03 271.17-2.55 271.82-2.55L271.82-2.55Q272.82-2.55 273.27-3.4L273.27-3.4ZM295.52 0.65Q294.32 0.65 293.27 0.1 292.22-0.45 291.57-1.4L291.57-1.4 293.92-3Q294.17-2.6 294.62-2.4 295.07-2.2 295.47-2.2L295.47-2.2Q296.12-2.2 296.62-2.75 297.12-3.3 297.12-4L297.12-4 297.12-34.2 299.02-34.2 304.57-27.95 320.57-7.55 321.27-6.45 321.12-34.15 324.22-34.15 324.22 0 323.17 0 300.62-28.15 300.02-29.2 300.22-3.95Q300.22-1.95 298.82-0.65 297.42 0.65 295.52 0.65L295.52 0.65ZM342.92 0.5Q339.17 0.5 336.57-1.05 333.97-2.6 332.64-5.33 331.32-8.05 331.32-11.5L331.32-11.5Q331.32-14.9 332.59-18.1 333.87-21.3 336.44-23.35 339.02-25.4 342.72-25.4L342.72-25.4Q345.17-25.4 347.27-24.45 349.37-23.5 350.59-21.75 351.82-20 351.82-17.7L351.82-17.7Q351.82-14 348.67-11.98 345.52-9.95 339.97-10L339.97-10 334.47-10.05Q334.92-6.2 337.04-4.2 339.17-2.2 342.92-2.2L342.92-2.2Q345.17-2.2 347.09-2.83 349.02-3.45 350.82-4.75L350.82-4.75 352.32-2.75Q350.42-1.25 347.99-0.38 345.57 0.5 342.92 0.5L342.92 0.5ZM340.62-12.6Q348.82-12.6 348.82-17.75L348.82-17.75Q348.82-20.25 347.09-21.48 345.37-22.7 342.87-22.7L342.87-22.7Q340.07-22.7 338.14-21.1 336.22-19.5 335.27-17.15 334.32-14.8 334.32-12.6L334.32-12.6 340.62-12.6ZM357.26-20.8Q356.96-21.7 356.26-22.53 355.56-23.35 354.86-23.75L354.86-23.75 356.26-25.85Q359.01-24 360.16-20.4L360.16-20.4 365.46-4.35 372.21-25 375.01-25 381.76-4.35 388.51-25 391.31-25 383.16-0.05 380.36-0.05 373.61-20.7 366.86-0.05 364.01-0.05 357.26-20.8ZM412.01 0.85Q410.61 0.85 409.48 0.08 408.36-0.7 407.86-1.9L407.86-1.9 410.46-2.95Q410.76-2.45 411.11-2.2 411.46-1.95 412.01-1.95L412.01-1.95Q413.11-1.95 413.46-3.05L413.46-3.05 420.01-34.2 422.96-34.2 433.41-5.65 433.96-3.7 434.51-5.65 445.06-34.2 448.06-34.2 455.06 0 452.06 0 446.41-28.15 446.11-30.05 445.56-28.1 435.41 0 432.46 0 422.36-28.05 421.81-30.05 421.51-28.05 416.26-2.7Q415.96-1.2 414.78-0.18 413.61 0.85 412.01 0.85L412.01 0.85ZM469.76 0.5Q466.31 0.5 463.86-1.25 461.41-3 460.16-5.9 458.91-8.8 458.91-12.3L458.91-12.3Q458.91-16.15 460.41-19.13 461.91-22.1 464.71-23.75 467.51-25.4 471.26-25.4L471.26-25.4Q472.41-25.4 474.16-25.28 475.91-25.15 477.26-24.95L477.26-24.95 480.26-24.95 480.26-4.3Q480.26-3.3 480.73-2.78 481.21-2.25 481.91-2.25L481.91-2.25Q482.81-2.25 483.36-3.1L483.36-3.1 485.51-1.4Q484.76-0.35 483.83 0.08 482.91 0.5 481.71 0.5L481.71 0.5Q479.96 0.5 478.63-0.7 477.31-1.9 477.31-3.6L477.31-3.6Q476.11-1.6 474.16-0.55 472.21 0.5 469.76 0.5L469.76 0.5ZM469.81-2.2Q472.06-2.2 473.86-3.3 475.66-4.4 476.56-6.2L476.56-6.2Q477.26-7.65 477.26-9.4L477.26-9.4 477.26-22.5 473.96-22.6 471.06-22.7Q466.51-22.7 464.21-19.85 461.91-17 461.91-12.4L461.91-12.4Q461.91-8.15 463.93-5.18 465.96-2.2 469.81-2.2L469.81-2.2ZM499.8-25.5Q501.3-25.5 502.8-25.05L502.8-25.05 502.8-22.25Q501.35-22.6 499.9-22.6L499.9-22.6Q497.35-22.6 495.75-21.35L495.75-21.35Q494.15-20.1 492.9-17.8L492.9-17.8 492.9 0 489.9 0 489.9-17.5Q489.9-21.45 487.8-23.3L487.8-23.3 489.8-25.3Q490.7-24.75 491.5-23.65 492.3-22.55 492.65-21.2L492.65-21.2Q494.05-23.5 495.45-24.35L495.45-24.35Q497.2-25.5 499.8-25.5L499.8-25.5ZM508-36.3L511-36.3 511-20.75Q512.2-23.05 514.33-24.33 516.45-25.6 519-25.6L519-25.6Q522.35-25.6 524.53-23.45 526.7-21.3 526.7-17.95L526.7-17.95Q526.7-15.25 525.33-13.4 523.95-11.55 522-10.75L522-10.75 526.5-3.2Q526.95-2.35 527.8-2.35L527.8-2.35Q528.45-2.35 528.8-2.85L528.8-2.85 530.95-1.15Q529.65 0.45 527.8 0.45L527.8 0.45Q526.6 0.45 525.53-0.1 524.45-0.65 523.85-1.7L523.85-1.7 519.1-9.95 511-9.95 511 0 508 0 508-36.3ZM516.75-12.75Q519-12.75 520.55-13.4L520.55-13.4Q523.85-14.8 523.85-18.05L523.85-18.05Q523.85-20.15 522.48-21.48 521.1-22.8 518.75-22.8L518.75-22.8Q516.2-22.8 514.4-21.15 512.6-19.5 511.65-16.35L511.65-16.35Q511.15-14.7 511.1-12.75L511.1-12.75 516.75-12.75ZM545 0.5Q541.25 0.5 538.65-1.05 536.05-2.6 534.72-5.33 533.4-8.05 533.4-11.5L533.4-11.5Q533.4-14.9 534.67-18.1 535.95-21.3 538.52-23.35 541.1-25.4 544.8-25.4L544.8-25.4Q547.25-25.4 549.35-24.45 551.45-23.5 552.67-21.75 553.9-20 553.9-17.7L553.9-17.7Q553.9-14 550.75-11.98 547.6-9.95 542.05-10L542.05-10 536.55-10.05Q537-6.2 539.12-4.2 541.25-2.2 545-2.2L545-2.2Q547.25-2.2 549.17-2.83 551.1-3.45 552.9-4.75L552.9-4.75 554.4-2.75Q552.5-1.25 550.07-0.38 547.65 0.5 545 0.5L545 0.5ZM542.7-12.6Q550.9-12.6 550.9-17.75L550.9-17.75Q550.9-20.25 549.17-21.48 547.45-22.7 544.95-22.7L544.95-22.7Q542.15-22.7 540.22-21.1 538.3-19.5 537.35-17.15 536.4-14.8 536.4-12.6L536.4-12.6 542.7-12.6ZM566.39 0.5Q562.99 0.5 561.39-1.43 559.79-3.35 559.79-7.2L559.79-7.2 559.79-31.25 562.79-31.25 562.79-24.9 570.64-24.9 570.64-22.2 562.79-22.2 562.79-7.2Q562.79-2.2 566.39-2.2L566.39-2.2Q569.24-2.2 570.79-5.25L570.79-5.25 573.04-3.7Q571.89-1.6 570.29-0.55 568.69 0.5 566.39 0.5L566.39 0.5Z" opacity="1" transform="matrix(1,0,0,1,0,0)" fill="#000000" class="slogan-text-1" data-fill-palette-color="quaternary" id="text-1"></path></svg></g></svg></g></svg></g></svg></g><g></g></svg></g><defs></defs></svg><rect width="356.12052" height="89.40185591547946" fill="none" stroke="none" visibility="hidden"></rect></g></svg></g></svg>